Simulation
nRows=38
nColumns=15
endheader
time  TH_x TH_y TH_z SC_y  SC_z  SC_x  AC_y  AC_z  AC_x  GH_y  GH_z  GH_yy  EL_x  PS_y
0.0  0.000000  0.000000  0.000000  -14.376979584240113  -5.765636238179723  -17.109375851896186  51.14338749131009  17.188734353660433  -8.185499876468665  24.492254969447014  16.394322235966957  -6.088236070521536  25.15716022375972  120.000000
0.02799999999999999  0.000000  0.000000  0.000000  -14.64503890524106  -4.975414241318398  -15.352732457732008  51.11195324892672  15.814054052536905  -8.965080067307776  23.6225547524937  16.441601257883075  -5.815287518475236  25.052793295461097  120.000000
0.05599999999999998  0.000000  0.000000  0.000000  -14.794325294341412  -4.460228955974735  -13.619804725723437  51.195496139973685  14.400604267173419  -9.522258618803878  22.917408883847052  16.508460236275727  -5.501787059181797  24.804905407656502  120.000000
0.08399999999999996  0.000000  0.000000  0.000000  -14.850073090593936  -4.218458892230586  -12.01337085310594  51.34448854206584  13.00018768974238  -9.964229373528259  22.42520196550208  16.58501917641554  -5.165757913921776  24.54823185638175  120.000000
0.11199999999999996  0.000000  0.000000  0.000000  -14.837447080245566  -4.20732280545958  -10.586428196802073  51.57327840961032  11.669926741834184  -10.42402823617548  22.172892389026522  16.735300624764918  -4.8531647290159246  24.372384254501107  120.000000
0.13999999999999996  0.000000  0.000000  0.000000  -14.797961747041171  -4.331866050069377  -9.312006689661711  51.87107177243043  10.468101033273845  -11.020162439139016  22.129833099697088  17.037228027251302  -4.623828948140837  24.281630109831607  120.000000
0.16799999999999993  0.000000  0.000000  0.000000  -14.792473259008105  -4.49614400430409  -8.126673982582492  52.15495856041357  9.44599698768412  -11.761092545529012  22.219714820576915  17.514985158262675  -4.524341089298897  24.21904755662893  120.000000
0.19599999999999992  0.000000  0.000000  0.000000  -14.841878052807285  -4.659183652563636  -6.998064931049176  52.381465942232396  8.60861392634739  -12.556410683946869  22.371039010198842  18.15786856228452  -4.5747794589325235  24.132865049160273  120.000000
0.22399999999999992  0.000000  0.000000  0.000000  -14.926231866891072  -4.801926776000757  -5.928377213454929  52.587429326377205  7.909187345272567  -13.320215100433177  22.5426962228148  18.952696484155094  -4.769603345000058  24.015479379587138  120.000000
0.2519999999999999  0.000000  0.000000  0.000000  -15.027591094669653  -4.9140974382078415  -4.92274242321695  52.805685149193835  7.299690698729623  -14.009189849482393  22.707725192434765  19.88014354553856  -5.090362123485561  23.878518327505226  120.000000
0.2799999999999999  0.000000  0.000000  0.000000  -15.137061005691217  -4.992762300212247  -3.9780665771259454  53.047201003448386  6.753274543940365  -14.608070572579685  22.84626537093268  20.922607691573635  -5.514958355235967  23.73831392215636  120.000000
0.3079999999999999  0.000000  0.000000  0.000000  -15.24964325103713  -5.0376078389838295  -3.086623493825309  53.312604604952845  6.2608240307746525  -15.120448497304746  22.943303019870125  22.06907355749154  -6.02190046773123  23.608584965719935  120.000000
0.33599999999999985  0.000000  0.000000  0.000000  -15.362779040371606  -5.0459904185024635  -2.240746954577827  53.59790647776355  5.822181941501108  -15.559655689565997  22.986879863554805  23.311808260000483  -6.591742062331525  23.49632370135301  120.000000
0.3639999999999999  0.000000  0.000000  0.000000  -15.475032905449941  -5.014277146265292  -1.4341696918663658  53.897286333974634  5.440511123906689  -15.940482597801468  22.967173198050393  24.64392292874824  -7.207844797467035  23.400155447415543  120.000000
0.39199999999999985  0.000000  0.000000  0.000000  -15.585420055557407  -4.9401123967372715  -0.6617935604421232  54.20492490505188  5.118406643021523  -16.272165096510587  22.876874134053164  26.057628299314068  -7.85667039128925  23.31240823371579  120.000000
0.4199999999999999  0.000000  0.000000  0.000000  -15.69200216246695  -4.8239302541932  0.07974361348843856  54.517941593455845  4.856105268721069  -16.558574504276468  22.71167175806166  27.544316999046767  -8.527556183954516  23.222434657523706  120.000000
0.44799999999999984  0.000000  0.000000  0.000000  -15.79184079770531  -4.668347667589106  0.792401327072247  54.83632357489874  4.650397622163666  -16.80071456392334  22.470110583910465  29.093362496243138  -9.211713161513842  23.12029190959354  120.000000
0.4759999999999998  0.000000  0.000000  0.000000  -15.881550871849266  -4.478417727166112  1.4777942060175884  55.16043874045392  4.496330242105638  -16.999201825873506  22.15251012209875  30.69112041027017  -9.90078068620675  22.999188346444225  120.000000
0.5039999999999998  0.000000  0.000000  0.000000  -15.957563268141552  -4.259647745989937  2.137055608172533  55.49026997667454  4.388400469702208  -17.15562181169061  21.760268448602684  32.320839105860635  -10.58610180760569  22.85691766279525  120.000000
0.5319999999999998  0.000000  0.000000  0.000000  -16.017164483608397  -4.017826375864395  2.770707700722467  55.824597430035  4.322352621880939  -17.272697434370464  21.295510091802083  33.96343405366699  -11.259025838520992  22.69564606583836  120.000000
0.5599999999999998  0.000000  0.000000  0.000000  -16.059228609365267  -3.757497200496935  3.3793714672198125  56.16191466541236  4.2954249653402625  -17.353600945069594  20.761467080792286  35.59919242686133  -11.91279926207078  22.520786929609987  120.000000
0.5879999999999997  0.000000  0.000000  0.000000  -16.085582384826456  -3.4818097715639373  3.9646325259807984  56.50145038271498  4.305876584389182  -17.401755708817344  20.163235578705542  37.209550490517024  -12.544853620077298  22.339681876973053  120.000000
0.6159999999999998  0.000000  0.000000  0.000000  -16.10185952830539  -3.1923173997025707  4.528962638096196  56.843846280348934  4.352400503799281  -17.419521514183653  19.508488266282527  38.77792346830553  -13.159201722744754  22.16005624158567  120.000000
0.6439999999999998  0.000000  0.000000  0.000000  -16.117698613190953  -2.8896261953725055  5.075685793653215  57.19143972568646  4.433908589282433  -17.407745870300708  18.807690812646367  40.29043608964463  -13.767091477741145  21.989100154040635  120.000000
0.6719999999999997  0.000000  0.000000  0.000000  -16.14563730543248  -2.573172088057171  5.6087842326559  57.547824069323724  4.549430872888385  -17.365495350565432  18.07344655115688  41.7359568583609  -14.385661875227765  21.832730219996122  120.000000
0.6999999999999997  0.000000  0.000000  0.000000  -16.199177356734797  -2.241457062942066  6.132474546606197  57.917400268752836  4.698259274734831  -17.29095790510981  17.31921142657633  43.1064318544087  -15.034300128669285  21.695523622042067  120.000000
0.7279999999999998  0.000000  0.000000  0.000000  -16.290515187554078  -1.8924985827639458  6.650984238624453  58.304480714733145  4.879691343151169  -17.181524571337473  16.557635928595122  44.396809916493936  -15.73033250007724  21.580438585021508  120.000000
0.7559999999999998  0.000000  0.000000  0.000000  -16.42863575850251  -1.5249441426126709  7.16845144162305  58.71261792117405  5.092940491733212  -17.034136461715168  15.799051605223852  45.60530590553608  -16.484586529772635  21.488928917208348  120.000000
0.7839999999999997  0.000000  0.000000  0.000000  -16.618638929269423  -1.1380654231787513  7.688245785109183  59.14406480992382  5.336593496866227  -16.845977378802633  15.050036112170783  46.73302616446974  -17.29882048570509  21.420502798267698  120.000000
0.8119999999999997  0.000000  0.000000  0.000000  -16.862247550644465  -0.7320822516176415  8.212585189996423  59.59946568657186  5.608482389833225  -16.61521994382973  14.312855589734266  47.783711053579175  -18.16527387872532  21.372982247673512  120.000000
0.8399999999999997  0.000000  0.000000  0.000000  -17.15848784404255  -0.3082451750303691  8.74287741396725  60.078072371583545  5.905793684420107  -16.340745521591888  13.585956651892735  48.763073489084526  -19.068552637092697  21.34321108452642  120.000000
0.8679999999999997  0.000000  0.000000  0.000000  -17.5049163661791  0.13139807683091442  9.279786706766881  60.57840585822737  6.225248453955036  -16.022212946561734  12.865118306075885  49.67804149346219  -19.98840698041131  21.327833467751468  120.000000
0.8959999999999997  0.000000  0.000000  0.000000  -17.89879649016938  0.5845371182194532  9.823606818287061  61.098397836320046  6.56372082921527  -15.659890027394939  12.144614504946196  50.53563012404867  -20.903013260724844  21.324056923391606  120.000000
0.9239999999999997  0.000000  0.000000  0.000000  -18.33792154333907  1.0489864721460331  10.374221229495786  61.635667350891104  6.918974195074479  -15.254370555144371  11.418554171521643  51.3421848656521  -21.791526508672003  21.330316748571683  120.000000
0.9519999999999996  0.000000  0.000000  0.000000  -18.820725498356758  1.5230966062000588  10.932108469712277  62.18775026435539  7.289056242887084  -14.806688094460434  10.681831066781328  52.102661058292114  -22.6360070347307  21.346639501140896  120.000000
0.9799999999999996  0.000000  0.000000  0.000000  -19.34616463260075  2.0057955438548323  11.499535158746793  62.75222696341562  7.671170930083699  -14.318670690170846  9.930584313418924  52.820499505111364  -23.4222769208303  21.374624047661325  120.000000
1.0079999999999996  0.000000  0.000000  0.000000  -19.91321115640799  2.496480878121904  12.080610605426568  63.326659914868564  8.061375278345729  -13.792575780321895  9.16215721808306  53.49755362160049  -24.140473018008294  21.41722626606691  120.000000
1.0359999999999996  0.000000  0.000000  0.000000  -20.52019698074739  2.994608249444576  12.680518085393006  63.908775022053646  8.454587576554593  -13.230756759542713  8.37505044054239  54.13428375970864  -24.785227047669924  21.478452134871794  120.000000
